<svg id="Layer_1" data-name="Layer 1" xmlns="http://www.w3.org/2000/svg" viewBox="0 0 402.43 391.65"><defs><style>.cls-1{fill:#3e9ed8;}.cls-2{fill:#592e91;}.cls-3{fill:#ef4846;}.cls-4{fill:#f9d159;}.cls-5{fill:#9ed8f0;}.cls-6{fill:#f6e6ae;}.cls-7{font-size:131.35px;fill:#d6e0e5;font-family:LucidaSans-TypewriterBoldOblique, Lucida Sans Typewriter;font-weight:700;font-style:italic;}.cls-8{font-size:100.68px;letter-spacing:0em;}</style></defs><path class="cls-1" d="M100.2,112.23c-.18-17,4.92-32.65,12.87-47.45,3.12-5.8,8.45-7.93,12.67-5.3,5.07,3.16,7,7.66,3.77,13.14-17.22,29.56-12.7,58,3.69,86.21,18.16,31.28,40.56,59.29,64.62,86.11,2.92,3.26,4.58,2.62,7.09-.3,12.17-14.16,24.92-27.83,35.9-43,4.46-6.15,9.71-7.74,14.17-4.67,4.88,3.35,5.24,9.2.66,15.38-14.47,19.53-31,37.28-47,55.54-4.68,5.35-9.84,5.51-14.46.35C163.79,234.3,133.77,200,113,159,105.61,144.32,99.6,129.15,100.2,112.23Z"/><path class="cls-2" d="M216.82,75.86c-15.15-6.28-33.14-2.58-45.3,9.32a39.89,39.89,0,0,0-9,44.49c7.43,17.83,18.72,33.27,31.07,48,5.3,6.29,10.31,6.23,15.59-.17a237.85,237.85,0,0,0,25.85-37.33c4.37-8,8.06-16.32,8.25-22.54C243.28,97.43,233.08,82.6,216.82,75.86Zm-15.57,56.53c-22.35,0-22.31-34.67,0-34.67S223.55,132.39,201.25,132.39Z"/><path class="cls-3" d="M201.6,13.3A100.7,100.7,0,0,1,302.11,119.52c-.59,10.58-4,20.55-8.31,30.19-2,4.42-3.88,8.87-6.19,13.11-2.9,5.31-8.45,7.26-12.9,4.51-5-3.09-5.58-7.5-3.22-12.74,6-13.32,12.76-26.39,12.67-41.62-.36-57.42-60.37-97.51-113.49-75.74-2.59,1.06-5.12,2.28-7.74,3.26-4.87,1.83-9,.51-11.3-4.07-2.41-4.78-1.42-9.28,3.55-11.94A95.11,95.11,0,0,1,201.6,13.3Z"/><path class="cls-4" d="M178.6,176.31c6.34,7.67,12.87,15.18,18.93,23.06,2.72,3.54,4.49,4.09,7.42.4,15.87-20,32.31-39.62,43.69-62.87,7.12-14.53,7.42-29,2.61-43.92-1.95-6.07.54-9.37,5.9-11.3,5.92-2.14,9.23,2.3,10.92,6.17,4.14,9.48,4.8,19.78,4.24,30.07-1.23,22.9-14.26,40.63-26.26,58.69-11.14,16.75-24.53,31.8-37.12,47.46-3.89,4.84-10.47,5.42-14.5.62q-14.66-17.5-28.54-35.67c-3.28-4.29-3.14-9.14,1.56-13C171.21,174.27,174.94,173.9,178.6,176.31Z"/><path class="cls-5" d="M203.58,42.78c5.18-.41,12.31.9,19.16,3.24,5.26,1.8,8.79,5.14,7,11.66-1.86,6.87-6.94,7.22-12.17,5.73-22.19-6.34-41.19-1.2-56.41,16C147.32,95,143.68,112.83,152,132.6c3.75,8.9-.52,15.18-9.21,14.2-3.22-.36-5-2.2-6.39-4.79-8.13-15.49-8.93-31.78-4.11-48.21C137.8,75.07,150,61.37,166.65,51.51,177.34,45.17,189.11,42.82,203.58,42.78Z"/><path class="cls-6" d="M178.6,176.31l-11.15-.25C171.27,171.82,175,171.31,178.6,176.31Z"/><text class="cls-7" transform="matrix(0.82, 0, -0.17, 0.99, 18.38, 364.92)">U<tspan class="cls-8" x="79.14" y="0">TRAVEL</tspan></text></svg>